<?xml version="1.0" standalone="no"?>
<!DOCTYPE svg PUBLIC "-//W3C//DTD SVG 20010904//EN"
 "http://www.w3.org/TR/2001/REC-SVG-20010904/DTD/svg10.dtd">
<svg version="1.0" xmlns="http://www.w3.org/2000/svg"
 width="1568.000000pt" height="1568.000000pt" viewBox="0 0 1568.000000 1568.000000"
 preserveAspectRatio="xMidYMid meet">
<metadata>
Created by potrace 1.11, written by Peter Selinger 2001-2013
</metadata>
<g transform="translate(0.000000,1568.000000) scale(0.100000,-0.100000)"
fill="#000000" stroke="none">
<path d="M7728 15570 c-15 -5 -94 -9 -175 -9 -154 -2 -291 -9 -302 -16 -4 -2
-47 -5 -96 -6 -50 -1 -101 -5 -115 -10 -14 -4 -54 -10 -90 -13 -36 -3 -81 -8
-100 -11 -137 -21 -171 -25 -215 -30 -93 -10 -190 -24 -235 -35 -25 -6 -65
-15 -90 -20 -25 -6 -65 -15 -90 -21 -25 -5 -65 -14 -90 -19 -25 -5 -65 -14
-90 -20 -25 -6 -65 -15 -90 -20 -106 -21 -128 -27 -477 -141 -100 -32 -188
-59 -196 -59 -16 0 -135 -45 -237 -89 -36 -16 -87 -38 -115 -49 -59 -24 -154
-63 -244 -100 -138 -57 -697 -346 -811 -419 -36 -23 -113 -73 -172 -110 -183
-116 -340 -221 -408 -272 -36 -28 -85 -65 -109 -83 -24 -18 -63 -49 -87 -68
-24 -19 -60 -48 -81 -63 -91 -68 -172 -133 -223 -182 -30 -29 -73 -68 -95 -86
-22 -18 -76 -68 -120 -111 -44 -43 -92 -86 -105 -95 -35 -24 -168 -156 -197
-195 -13 -18 -63 -73 -111 -122 -48 -49 -97 -102 -108 -118 -12 -16 -50 -59
-85 -96 -56 -59 -157 -184 -198 -246 -8 -11 -29 -37 -46 -56 -18 -19 -41 -50
-51 -67 -10 -18 -21 -33 -25 -33 -4 0 -16 -15 -28 -32 -11 -18 -36 -53 -56
-78 -38 -50 -154 -223 -258 -387 -38 -60 -87 -137 -110 -173 -110 -173 -390
-730 -478 -952 -44 -111 -63 -157 -89 -218 -50 -117 -69 -164 -79 -200 -8 -31
-79 -255 -156 -500 -28 -88 -40 -133 -55 -210 -5 -25 -14 -65 -19 -90 -6 -25
-15 -65 -21 -90 -5 -25 -14 -65 -20 -90 -6 -25 -15 -65 -20 -90 -5 -25 -14
-65 -20 -90 -11 -46 -27 -157 -36 -245 -2 -27 -9 -72 -14 -100 -5 -27 -12 -70
-15 -95 -3 -25 -9 -83 -15 -130 -18 -154 -31 -313 -36 -450 -2 -74 -6 -175 -9
-225 -9 -138 -9 -258 -2 -390 4 -66 9 -174 12 -240 7 -170 21 -360 28 -371 3
-5 6 -36 8 -69 1 -33 6 -71 10 -85 4 -14 10 -50 13 -80 6 -55 17 -142 35 -280
6 -41 15 -93 20 -115 6 -22 13 -53 16 -70 7 -37 23 -108 35 -155 4 -19 13 -60
20 -90 6 -30 15 -71 20 -90 5 -19 14 -62 21 -95 12 -62 26 -109 129 -435 34
-107 66 -211 71 -230 10 -36 29 -83 79 -200 15 -36 37 -87 48 -115 97 -242
134 -324 228 -510 142 -280 224 -437 249 -475 12 -19 35 -56 51 -82 143 -230
304 -476 359 -548 19 -25 45 -59 57 -76 13 -17 43 -57 68 -89 92 -116 110
-141 135 -178 14 -20 29 -37 34 -37 6 0 12 -9 16 -20 3 -10 43 -59 88 -108 45
-49 97 -107 116 -128 18 -21 68 -75 110 -120 42 -44 101 -109 131 -143 30 -35
82 -86 115 -114 33 -27 107 -94 165 -148 251 -233 278 -256 420 -361 30 -22
71 -53 90 -69 40 -33 100 -80 160 -124 22 -16 55 -41 71 -54 32 -25 169 -115
356 -234 60 -38 137 -87 173 -110 168 -107 725 -387 948 -476 28 -12 76 -31
105 -42 28 -12 68 -28 87 -36 91 -40 255 -103 267 -103 8 0 96 -27 196 -59
349 -114 371 -120 477 -141 25 -5 65 -14 90 -20 25 -6 65 -15 90 -20 25 -5 65
-14 90 -20 25 -6 65 -15 90 -20 25 -5 65 -14 90 -20 25 -6 79 -15 120 -21 138
-18 225 -29 280 -35 30 -3 66 -9 80 -13 14 -4 50 -9 80 -10 30 -1 71 -6 90
-11 19 -4 68 -9 109 -10 41 0 93 -5 117 -9 24 -5 127 -9 229 -10 103 -1 196
-6 208 -10 23 -9 171 -7 312 3 44 3 145 8 225 11 189 5 398 24 610 55 36 5
101 13 145 19 191 25 233 31 275 41 25 6 65 15 90 20 25 5 65 14 90 20 25 6
65 15 90 20 25 6 65 15 90 21 25 5 65 14 90 19 77 15 122 27 210 55 245 77
469 148 500 156 36 10 83 29 200 79 36 15 88 37 115 48 241 97 322 133 515
230 258 131 463 240 540 289 36 23 113 72 173 110 161 102 336 219 387 258 42
33 63 48 150 111 19 14 45 35 56 47 12 12 47 40 78 62 86 60 175 132 236 190
30 29 73 68 95 86 22 18 77 69 121 112 45 44 93 86 107 96 29 19 163 153 195
196 13 17 62 70 110 119 48 49 97 102 109 119 12 16 48 57 80 91 60 63 125
142 178 217 17 23 48 64 70 90 22 26 53 65 68 86 16 21 51 67 78 103 51 68
157 225 272 408 37 59 87 136 110 172 49 78 153 271 291 546 108 214 134 273
228 509 11 28 33 79 49 115 44 102 89 221 89 237 0 8 27 96 59 196 114 349
120 371 141 477 5 25 14 65 19 90 6 25 15 65 21 90 5 25 14 65 20 90 6 25 15
65 20 90 5 25 14 65 19 90 12 49 28 155 41 265 5 39 13 106 20 150 22 162 31
242 36 330 3 50 9 106 13 125 4 19 8 117 10 216 1 100 5 194 7 210 10 60 13
221 4 259 -4 22 -11 132 -14 245 -7 246 -23 443 -51 625 -18 125 -25 175 -30
220 -10 94 -24 190 -35 235 -6 25 -15 65 -20 90 -5 25 -14 65 -20 90 -6 25
-15 65 -20 90 -5 25 -14 65 -20 90 -6 25 -15 65 -20 90 -21 106 -27 128 -141
477 -32 100 -59 188 -59 196 0 8 -23 70 -51 138 -54 133 -78 191 -108 267 -81
201 -142 337 -223 492 -173 331 -236 448 -275 510 -23 36 -73 114 -110 173
-107 170 -206 321 -221 336 -8 8 -25 30 -38 50 -13 20 -40 56 -59 81 -19 25
-43 56 -52 70 -10 14 -28 36 -41 50 -13 14 -35 41 -48 60 -23 33 -41 57 -109
146 -16 21 -43 53 -60 69 -17 17 -62 67 -99 110 -38 44 -102 114 -142 155 -40
41 -83 89 -95 105 -29 39 -155 165 -194 194 -16 12 -64 55 -105 95 -41 40
-111 104 -155 142 -44 37 -81 72 -83 76 -6 13 -151 128 -177 140 -14 6 -25 15
-25 19 0 5 -17 20 -37 34 -21 14 -63 46 -93 70 -30 25 -71 57 -90 70 -19 14
-55 41 -80 60 -71 55 -336 228 -543 356 -23 14 -55 34 -72 45 -45 29 -278 151
-500 262 -191 95 -276 134 -392 181 -29 12 -77 31 -105 42 -29 12 -69 28 -88
36 -91 40 -255 103 -267 103 -8 0 -96 27 -196 59 -349 114 -371 120 -477 141
-25 5 -65 14 -90 20 -25 6 -65 15 -90 20 -25 5 -65 14 -90 20 -25 6 -65 15
-90 20 -25 5 -65 14 -90 20 -48 11 -191 32 -390 55 -25 3 -58 8 -75 11 -48 10
-183 24 -275 30 -47 3 -105 9 -130 13 -25 4 -129 8 -231 10 -103 1 -202 6
-222 11 -46 10 -194 10 -229 0z m149 -497 c17 -27 43 -70 58 -98 14 -27 46
-84 70 -125 24 -41 60 -104 80 -140 20 -36 51 -90 70 -120 19 -30 50 -84 70
-120 20 -36 56 -99 80 -140 25 -41 59 -102 76 -135 17 -33 35 -62 39 -65 4 -3
20 -27 34 -55 15 -27 47 -84 71 -125 24 -41 58 -101 75 -134 17 -32 36 -64 42
-70 10 -11 35 -53 103 -176 20 -36 56 -99 80 -140 24 -41 60 -104 80 -140 20
-36 51 -90 70 -120 19 -30 50 -84 70 -120 20 -36 56 -99 80 -140 24 -41 60
-104 80 -140 20 -36 51 -90 70 -120 49 -79 75 -128 75 -140 0 -7 -472 -10
-1511 -10 l-1510 0 7 23 c7 25 19 46 69 127 19 30 50 84 70 120 20 36 56 99
80 140 24 41 60 104 80 140 20 36 51 90 70 120 19 30 50 84 70 120 20 36 56
99 80 140 24 41 60 104 80 140 20 36 51 90 70 120 19 30 50 84 70 120 36 64
86 152 154 267 19 32 49 85 68 118 19 33 54 94 78 135 24 41 60 104 80 140 20
36 51 90 70 120 19 30 50 84 70 120 20 36 56 99 80 140 24 41 56 98 70 125 38
69 87 145 95 145 4 0 20 -21 37 -47z m-5112 -2095 c22 -5 58 -13 80 -19 22 -5
56 -14 75 -18 19 -5 60 -16 90 -26 30 -9 72 -21 93 -26 79 -19 124 -31 187
-49 36 -10 85 -24 110 -30 25 -6 74 -20 110 -30 64 -18 118 -32 195 -52 22 -5
69 -18 105 -28 36 -10 83 -23 105 -28 77 -20 131 -34 195 -52 36 -10 85 -24
110 -30 25 -6 74 -20 110 -30 36 -10 84 -23 108 -29 23 -6 61 -16 85 -22 23
-6 71 -19 107 -29 64 -18 118 -32 195 -52 22 -5 69 -18 105 -28 64 -18 118
-32 195 -52 22 -5 69 -18 105 -28 36 -10 85 -24 110 -30 42 -11 126 -35 213
-60 28 -9 35 -15 29 -26 -7 -13 -1056 -1065 -1852 -1859 -273 -272 -271 -271
-286 -205 -2 14 -13 54 -24 90 -10 36 -24 85 -30 110 -6 25 -20 74 -30 110
-18 64 -32 118 -52 195 -5 22 -18 69 -28 105 -10 36 -23 84 -29 108 -6 23 -16
61 -22 85 -6 23 -19 71 -29 107 -10 36 -23 84 -29 108 -6 23 -16 61 -22 85 -6
23 -19 71 -29 107 -10 36 -24 85 -30 110 -6 25 -20 72 -29 105 -10 33 -24 83
-30 110 -19 77 -31 124 -51 195 -10 36 -23 84 -29 108 -6 23 -16 61 -22 85 -6
23 -19 71 -29 107 -10 36 -24 85 -30 110 -6 25 -20 74 -30 110 -18 64 -32 118
-52 195 -5 22 -18 69 -28 105 -18 62 -27 96 -51 193 -5 23 -14 55 -19 71 -11
35 -4 50 19 40 9 -3 34 -11 56 -16z m10229 13 c3 -4 1 -21 -4 -37 -5 -16 -14
-48 -19 -71 -24 -97 -33 -131 -51 -193 -18 -64 -32 -118 -52 -195 -5 -22 -18
-69 -28 -105 -10 -36 -24 -85 -30 -110 -6 -25 -20 -74 -30 -110 -10 -36 -23
-84 -29 -107 -6 -24 -16 -62 -22 -85 -6 -24 -19 -72 -29 -108 -10 -36 -23 -83
-28 -105 -20 -77 -34 -131 -52 -195 -10 -36 -24 -85 -30 -110 -6 -25 -20 -74
-30 -110 -10 -36 -23 -84 -29 -107 -6 -24 -16 -62 -22 -85 -6 -24 -19 -72 -29
-108 -10 -36 -23 -84 -29 -107 -6 -24 -16 -62 -22 -85 -6 -24 -19 -72 -29
-108 -10 -36 -23 -84 -29 -107 -6 -24 -16 -62 -22 -85 -6 -24 -19 -72 -29
-108 -10 -36 -24 -85 -30 -110 -6 -25 -20 -74 -30 -110 -11 -36 -22 -76 -24
-90 -3 -14 -10 -32 -16 -40 -8 -13 -13 -11 -34 10 -13 14 -354 354 -757 757
-1354 1351 -1345 1343 -1329 1353 15 9 88 32 163 51 85 21 125 32 187 49 36
10 84 23 108 29 23 6 61 16 85 22 23 6 71 19 107 29 36 10 84 23 108 29 23 6
61 16 85 22 23 6 71 19 107 29 36 10 85 24 110 30 25 6 74 20 110 30 36 10 84
23 108 29 23 6 61 16 85 22 23 6 71 19 107 29 64 18 118 32 195 52 22 5 69 18
105 28 36 10 84 23 108 29 23 6 61 16 85 22 23 6 71 19 107 29 64 18 118 32
195 52 22 5 69 18 105 28 36 10 85 24 110 30 25 6 74 20 110 30 36 10 83 23
105 28 89 22 131 34 155 42 35 11 38 11 44 1z m-4794 -905 c30 -3 73 -9 95
-12 22 -3 74 -9 115 -15 111 -13 244 -38 330 -59 25 -6 65 -15 90 -20 88 -17
127 -28 262 -74 75 -25 144 -46 152 -46 9 0 35 -9 58 -19 51 -23 174 -75 238
-101 113 -45 138 -57 190 -88 30 -19 98 -56 150 -83 52 -27 139 -77 193 -111
53 -35 116 -74 139 -88 22 -14 58 -38 79 -55 41 -32 81 -62 170 -128 94 -70
163 -133 378 -347 195 -195 294 -301 334 -359 9 -14 30 -42 45 -62 98 -129
119 -157 139 -187 13 -18 30 -47 39 -64 9 -17 20 -36 25 -42 27 -32 112 -174
158 -266 30 -58 60 -112 67 -120 12 -15 55 -106 94 -200 31 -75 81 -193 101
-238 10 -23 19 -49 19 -58 0 -8 23 -86 51 -172 67 -209 69 -215 69 -242 0 -13
4 -37 9 -54 31 -102 55 -226 71 -376 5 -41 11 -84 14 -95 27 -98 27 -795 0
-925 -3 -14 -9 -59 -14 -100 -17 -154 -40 -275 -71 -376 -5 -17 -9 -41 -9 -54
0 -27 -2 -33 -69 -242 -28 -86 -51 -164 -51 -172 0 -9 -8 -35 -19 -58 -39 -90
-80 -185 -101 -238 -44 -111 -196 -397 -284 -535 -31 -49 -71 -113 -89 -140
-18 -28 -52 -77 -77 -109 -92 -120 -100 -132 -117 -157 -39 -56 -147 -173
-339 -364 -229 -228 -309 -301 -434 -388 -14 -9 -45 -33 -70 -52 -99 -77 -333
-224 -469 -296 -184 -97 -264 -137 -316 -158 -64 -25 -187 -77 -243 -102 -23
-10 -49 -19 -58 -19 -8 0 -77 -21 -152 -46 -132 -45 -163 -54 -262 -74 -25 -6
-65 -15 -90 -21 -96 -22 -225 -45 -330 -58 -41 -5 -91 -12 -110 -15 -105 -16
-203 -20 -465 -20 -159 0 -333 6 -385 12 -52 6 -120 14 -150 17 -30 3 -77 10
-105 15 -27 5 -66 12 -85 15 -52 8 -119 22 -170 35 -25 6 -65 15 -90 20 -86
17 -126 28 -250 70 -69 23 -141 46 -160 50 -19 5 -68 22 -107 39 -182 78 -220
93 -248 102 -16 5 -57 25 -90 43 -33 19 -112 62 -175 95 -63 33 -160 89 -215
124 -55 36 -120 77 -145 93 -25 15 -58 38 -75 51 -40 32 -105 81 -156 118 -22
17 -69 55 -103 85 -34 30 -75 65 -92 78 -41 31 -350 340 -382 382 -15 18 -52
62 -82 96 -30 34 -68 81 -85 103 -44 60 -91 122 -115 151 -11 14 -35 48 -53
77 -17 28 -61 98 -97 154 -87 136 -232 409 -278 524 -11 28 -34 82 -50 120
-65 150 -175 495 -197 615 -4 19 -11 53 -17 75 -11 49 -25 118 -33 165 -3 19
-10 58 -15 85 -5 28 -12 75 -15 105 -3 30 -11 98 -17 150 -16 132 -16 649 0
780 7 58 17 137 22 175 14 119 31 219 50 295 5 19 14 60 20 90 19 91 29 128
81 295 71 225 73 231 144 395 20 47 41 99 46 115 5 17 27 62 49 100 22 39 63
115 91 169 45 89 80 146 222 363 20 32 53 78 72 103 19 25 46 61 60 80 14 19
37 50 50 68 63 87 274 313 425 455 185 173 246 227 258 227 5 0 12 4 14 8 3 8
72 62 163 129 199 146 586 367 775 443 30 12 84 35 120 50 88 39 147 59 335
118 167 53 204 63 295 82 30 6 71 15 90 20 52 13 140 29 181 34 20 2 41 6 46
9 4 3 35 6 68 8 33 1 70 6 81 10 12 4 52 9 90 10 38 1 78 6 89 10 23 9 582 5
665 -5z m-5022 -4249 c2 -1210 0 -1507 -10 -1507 -7 0 -31 11 -53 25 -22 13
-62 36 -90 51 -27 15 -52 30 -55 34 -3 4 -32 22 -65 39 -33 18 -94 52 -135 76
-41 24 -104 60 -140 80 -36 20 -94 54 -130 75 -36 22 -90 54 -120 71 -30 16
-93 52 -140 79 -47 27 -110 63 -140 80 -30 17 -80 46 -110 65 -30 19 -84 50
-120 70 -64 36 -152 86 -267 154 -32 19 -85 49 -118 68 -33 19 -94 54 -135 78
-41 24 -104 60 -140 80 -36 20 -90 51 -120 70 -30 19 -84 50 -120 70 -36 20
-99 56 -140 80 -41 24 -97 56 -125 70 -69 38 -145 87 -145 95 0 8 76 58 145
94 28 15 84 47 125 71 41 25 104 61 140 80 36 20 90 51 120 70 56 34 128 76
255 147 39 22 104 59 145 84 41 24 95 55 120 69 25 15 79 46 120 70 41 24 104
60 140 80 36 20 90 51 120 70 30 19 84 50 120 70 36 20 99 56 140 80 41 24
100 57 130 74 30 17 84 49 120 71 36 21 94 55 130 75 36 20 99 56 140 80 41
24 104 60 140 80 36 19 105 60 155 90 49 30 94 54 100 52 7 -3 11 -501 13
-1510z m9387 1488 c22 -13 63 -36 90 -51 28 -15 52 -30 55 -34 3 -4 32 -22 65
-39 33 -18 94 -52 135 -76 41 -24 104 -60 140 -80 36 -20 90 -51 120 -70 30
-19 84 -50 120 -70 36 -20 99 -56 140 -80 41 -24 104 -60 140 -80 36 -20 90
-51 120 -70 30 -19 84 -50 120 -70 36 -20 99 -56 140 -80 41 -24 98 -56 125
-71 28 -14 52 -30 55 -34 3 -4 32 -22 65 -39 33 -17 94 -51 135 -76 41 -24
104 -60 140 -80 36 -20 90 -51 120 -70 30 -19 84 -50 120 -70 36 -20 99 -56
140 -80 41 -24 98 -56 125 -70 69 -38 145 -87 145 -95 0 -8 -76 -57 -145 -95
-27 -14 -84 -46 -125 -70 -41 -24 -104 -60 -140 -80 -36 -20 -90 -51 -120 -70
-30 -19 -80 -48 -110 -65 -30 -17 -93 -53 -140 -80 -47 -27 -110 -63 -140 -79
-30 -17 -84 -49 -120 -71 -36 -21 -94 -55 -130 -75 -72 -40 -163 -93 -255
-148 -33 -20 -85 -50 -115 -67 -30 -17 -93 -53 -140 -80 -47 -27 -114 -65
-150 -85 -36 -20 -90 -51 -120 -70 -30 -19 -84 -50 -120 -70 -36 -20 -99 -56
-140 -80 -41 -24 -104 -60 -140 -80 -36 -19 -105 -60 -155 -90 -49 -30 -95
-55 -102 -55 -11 0 -13 292 -13 1510 0 1201 3 1510 13 1510 6 0 30 -11 52 -25z
m-8493 -4332 c1578 -1577 1526 -1523 1498 -1538 -14 -8 -33 -14 -44 -15 -10 0
-46 -9 -80 -19 -33 -11 -81 -25 -106 -31 -25 -6 -74 -20 -110 -30 -36 -10 -84
-23 -107 -29 -24 -6 -62 -16 -85 -22 -24 -6 -72 -19 -108 -29 -36 -10 -84 -23
-107 -29 -24 -6 -62 -16 -85 -22 -24 -6 -72 -19 -108 -29 -36 -10 -84 -23
-107 -29 -24 -6 -62 -16 -85 -22 -24 -6 -72 -19 -108 -29 -36 -10 -85 -24
-110 -30 -25 -6 -74 -20 -110 -30 -36 -10 -84 -23 -107 -29 -24 -6 -62 -16
-85 -22 -24 -6 -72 -19 -108 -29 -36 -10 -84 -23 -107 -29 -24 -6 -62 -16 -85
-22 -24 -6 -72 -19 -108 -29 -36 -10 -85 -24 -110 -30 -25 -6 -74 -20 -110
-30 -36 -10 -83 -23 -105 -28 -77 -20 -131 -34 -195 -52 -67 -19 -126 -34
-195 -51 -22 -6 -53 -14 -70 -20 -37 -11 -47 -1 -36 36 6 17 15 49 20 73 24
96 33 130 51 192 10 36 23 83 28 105 20 77 34 131 52 195 10 36 24 85 30 110
6 25 20 74 30 110 10 36 23 83 28 105 20 77 34 131 52 195 10 36 23 83 28 105
20 77 34 131 52 195 10 36 24 85 30 110 6 25 20 74 30 110 10 36 23 83 28 105
20 77 34 131 52 195 10 36 23 84 29 108 6 23 16 61 22 85 6 23 19 71 29 107
10 36 23 83 28 105 20 77 34 131 52 195 10 36 24 85 30 110 6 25 20 73 31 106
10 34 19 69 19 77 0 23 22 68 32 65 4 -2 274 -269 600 -595z m8156 572 c7 -14
12 -33 12 -42 0 -8 9 -43 19 -77 11 -33 25 -81 31 -106 6 -25 20 -74 30 -110
10 -36 23 -83 28 -105 20 -77 34 -131 52 -195 10 -36 23 -84 29 -107 6 -24 16
-62 22 -85 6 -24 19 -72 29 -108 10 -36 23 -83 28 -105 20 -77 34 -131 52
-195 10 -36 24 -85 30 -110 6 -25 20 -74 30 -110 18 -64 32 -118 52 -195 5
-22 18 -69 28 -105 18 -64 32 -118 52 -195 5 -22 18 -69 28 -105 10 -36 24
-85 30 -110 6 -25 20 -74 30 -110 10 -36 23 -84 29 -107 6 -24 16 -62 22 -85
6 -24 19 -72 29 -108 10 -36 23 -83 28 -105 24 -93 34 -132 43 -160 11 -37 1
-48 -37 -36 -33 10 -100 28 -159 43 -22 5 -69 18 -105 28 -64 18 -118 32 -195
52 -22 5 -69 18 -105 28 -36 10 -85 24 -110 30 -25 6 -74 20 -110 30 -36 10
-84 23 -107 29 -24 6 -62 16 -85 22 -24 6 -72 19 -108 29 -64 18 -118 32 -195
52 -22 5 -69 18 -105 28 -36 10 -85 24 -110 30 -25 6 -74 20 -110 30 -36 10
-84 23 -107 29 -24 6 -62 16 -85 22 -24 6 -72 19 -108 29 -36 10 -84 23 -107
29 -24 6 -62 16 -85 22 -24 6 -72 19 -108 29 -36 10 -84 23 -107 29 -24 6 -62
16 -85 22 -24 6 -72 19 -108 29 -36 10 -85 24 -110 30 -42 11 -126 35 -213 60
-29 9 -35 15 -28 27 10 20 2103 2113 2112 2113 3 0 11 -11 17 -25z m-2878
-2395 c0 -12 -26 -61 -75 -140 -19 -30 -50 -84 -70 -120 -20 -36 -56 -99 -80
-140 -24 -41 -60 -104 -80 -140 -20 -36 -54 -94 -75 -130 -22 -36 -54 -90 -71
-120 -17 -30 -50 -89 -74 -130 -24 -41 -60 -104 -80 -140 -20 -36 -52 -92 -72
-125 -55 -92 -108 -183 -148 -255 -20 -36 -54 -94 -75 -130 -22 -36 -54 -90
-71 -120 -17 -30 -50 -89 -74 -130 -24 -41 -60 -104 -80 -140 -20 -36 -51 -90
-70 -120 -19 -30 -50 -84 -70 -120 -20 -36 -56 -99 -80 -140 -24 -41 -56 -97
-70 -125 -38 -69 -87 -145 -95 -145 -8 0 -57 76 -95 145 -14 28 -46 84 -70
125 -24 41 -57 100 -74 130 -17 30 -49 84 -71 120 -21 36 -55 94 -75 130 -20
36 -56 99 -80 140 -24 41 -59 102 -78 135 -19 33 -49 86 -68 118 -68 115 -118
203 -154 267 -20 36 -51 90 -70 120 -19 30 -48 82 -66 114 -17 33 -39 71 -49
85 -15 22 -89 152 -137 239 -8 15 -30 52 -48 82 -19 30 -50 84 -70 120 -20 36
-56 99 -80 140 -24 41 -60 104 -80 140 -20 36 -51 90 -70 120 -49 79 -75 128
-75 140 0 7 471 10 1510 10 1039 0 1510 -3 1510 -10z"/>
<path d="M7780 11708 c-18 -29 -41 -65 -50 -79 -10 -14 -32 -52 -50 -85 -17
-32 -51 -93 -75 -134 -24 -41 -60 -104 -80 -140 -20 -36 -52 -92 -72 -125 -20
-33 -54 -91 -76 -130 -92 -161 -111 -194 -152 -265 -24 -41 -55 -95 -70 -120
-70 -119 -117 -201 -150 -260 -20 -36 -51 -90 -70 -120 -19 -30 -50 -84 -70
-120 -20 -36 -56 -99 -80 -140 -24 -41 -60 -104 -80 -140 -20 -36 -51 -90 -70
-120 -19 -30 -50 -84 -70 -120 -20 -36 -56 -99 -80 -140 -79 -135 -94 -168
-101 -209 l-7 -41 1463 0 1463 0 -7 41 c-7 41 -22 74 -101 209 -24 41 -57 100
-74 130 -17 30 -49 84 -71 120 -21 36 -55 94 -75 130 -20 36 -53 94 -74 130
-21 36 -57 99 -81 140 -24 41 -57 99 -74 128 -64 108 -116 199 -151 262 -20
36 -51 90 -70 120 -18 30 -49 82 -68 115 -19 33 -53 93 -75 133 -23 39 -59
102 -81 140 -21 37 -54 94 -74 127 -20 33 -52 89 -72 125 -20 36 -56 99 -80
140 -24 41 -60 104 -79 140 -20 36 -56 97 -80 135 -36 58 -49 71 -74 73 -26 3
-33 -3 -62 -50z"/>
<path d="M6020 8873 c0 -16 6 -37 13 -49 6 -12 29 -52 50 -90 21 -38 58 -103
82 -144 75 -129 95 -163 146 -250 27 -47 63 -110 80 -140 16 -30 45 -80 64
-110 19 -30 50 -84 70 -120 20 -36 56 -99 80 -140 24 -41 60 -104 80 -140 20
-36 51 -90 70 -120 19 -30 50 -84 70 -120 20 -36 56 -99 80 -140 24 -41 60
-104 80 -140 20 -36 51 -90 70 -120 19 -30 50 -84 70 -120 33 -59 80 -141 150
-260 30 -51 96 -166 149 -257 20 -35 53 -93 73 -130 20 -38 41 -72 46 -78 9
-10 38 -61 102 -175 20 -36 56 -99 80 -140 25 -41 52 -90 62 -107 29 -56 77
-56 106 0 10 17 37 66 62 107 24 41 60 104 80 140 20 36 51 90 70 120 18 30
51 87 73 125 45 81 109 193 163 285 21 36 49 85 64 110 14 25 45 79 70 120 24
41 60 104 80 140 20 36 54 94 75 130 22 36 54 90 71 120 17 30 50 89 74 130
24 41 60 104 80 140 20 36 51 90 70 120 19 30 50 84 70 120 20 36 56 99 80
140 24 41 60 104 80 140 20 36 54 94 75 130 22 36 54 90 70 120 17 30 50 89
75 130 24 41 56 95 70 120 15 25 46 79 70 120 24 41 61 106 82 144 21 38 44
78 50 90 7 12 13 33 13 49 l0 27 -1820 0 -1820 0 0 -27z"/>
<path d="M5857 8374 c-21 -24 -44 -61 -112 -184 -20 -36 -56 -99 -80 -140 -24
-41 -60 -104 -80 -140 -20 -36 -54 -94 -75 -130 -22 -36 -54 -90 -71 -120 -17
-30 -50 -89 -74 -130 -24 -41 -60 -104 -80 -140 -20 -36 -52 -92 -72 -125 -34
-57 -75 -127 -150 -260 -19 -33 -52 -89 -74 -125 -21 -36 -53 -90 -70 -120
-17 -30 -50 -89 -74 -130 -24 -41 -60 -104 -80 -140 -20 -36 -54 -94 -75 -130
-22 -36 -54 -90 -71 -120 -17 -30 -50 -89 -74 -130 -79 -135 -94 -168 -101
-209 l-7 -41 1456 0 c1210 0 1456 2 1460 13 6 16 -35 121 -56 145 -8 10 -29
44 -46 77 -33 61 -80 143 -144 250 -20 33 -52 89 -72 125 -20 36 -56 99 -80
140 -24 41 -60 104 -80 140 -20 36 -51 90 -70 120 -19 30 -48 80 -65 110 -17
30 -53 93 -80 140 -27 47 -65 114 -85 150 -20 36 -51 90 -70 120 -19 30 -50
84 -70 120 -20 36 -56 99 -80 140 -24 41 -58 102 -76 135 -17 33 -35 62 -39
65 -4 3 -20 28 -34 55 -15 28 -47 84 -71 125 -24 41 -58 102 -75 134 -18 33
-40 71 -50 85 -9 14 -33 51 -53 82 -42 67 -69 78 -100 43z"/>
<path d="M9765 8392 c-16 -11 -69 -96 -146 -232 -69 -123 -110 -195 -144 -250
-19 -30 -50 -84 -70 -120 -20 -36 -56 -99 -80 -140 -24 -41 -60 -104 -80 -140
-20 -36 -51 -90 -70 -120 -19 -30 -50 -84 -70 -120 -20 -36 -56 -99 -80 -140
-24 -41 -60 -104 -80 -140 -20 -36 -54 -94 -75 -130 -22 -36 -54 -90 -71 -120
-17 -30 -50 -89 -74 -130 -24 -41 -60 -104 -80 -140 -20 -36 -51 -90 -70 -120
-19 -30 -50 -84 -70 -120 -20 -36 -56 -99 -80 -140 -60 -101 -93 -170 -97
-200 l-3 -25 1459 -3 1459 -2 -7 42 c-6 38 -86 196 -136 269 -10 14 -32 52
-49 85 -18 32 -47 84 -66 114 -19 30 -50 84 -70 120 -20 36 -56 99 -80 140
-24 41 -60 104 -80 140 -20 36 -51 90 -70 120 -19 30 -50 84 -70 120 -40 72
-93 164 -148 255 -20 33 -52 89 -72 125 -20 36 -56 99 -80 140 -24 41 -60 104
-80 140 -20 36 -51 90 -70 120 -18 30 -49 82 -68 115 -94 166 -122 215 -155
275 -20 36 -39 67 -43 70 -3 3 -17 25 -29 50 -45 89 -74 114 -105 92z"/>
</g>
</svg>
